<?xml version="1.0" encoding="utf-8"?>
<!-- Generator: Adobe Illustrator 19.1.0, SVG Export Plug-In . SVG Version: 6.00 Build 0)  -->
<svg version="1.1"
	 id="svg2" xmlns:dc="http://purl.org/dc/elements/1.1/" xmlns:rdf="http://www.w3.org/1999/02/22-rdf-syntax-ns#" xmlns:cc="http://creativecommons.org/ns#" xmlns:inkscape="http://www.inkscape.org/namespaces/inkscape" xmlns:svg="http://www.w3.org/2000/svg" xmlns:sodipodi="http://sodipodi.sourceforge.net/DTD/sodipodi-0.dtd" sodipodi:docname="AJAX1.svg" inkscape:version="0.48.2 r9819"
	 xmlns="http://www.w3.org/2000/svg" xmlns:xlink="http://www.w3.org/1999/xlink" x="0px" y="0px" viewBox="-249 341.5 111.4 111.5"
	 style="enable-background:new -249 341.5 111.4 111.5;" xml:space="preserve">
<style type="text/css">
	.st0{clip-path:url(#SVGID_2_);}
	.st1{clip-path:url(#SVGID_4_);}
	.st2{clip-path:url(#SVGID_6_);}
	.st3{clip-path:url(#SVGID_8_);}
	.st4{clip-path:url(#SVGID_10_);}
	.st5{clip-path:url(#SVGID_12_);}
	.st6{clip-path:url(#SVGID_14_);}
	.st7{clip-path:url(#SVGID_16_);}
	.st8{clip-path:url(#SVGID_18_);}
	.st9{fill:#004B8D;}
	.st10{clip-path:url(#SVGID_20_);}
	.st11{fill:#0081C6;}
	.st12{fill:#5D9732;}
	.st13{fill:#0069AA;}
	.st14{clip-path:url(#SVGID_22_);}
	.st15{fill:#FFFFFF;}
	.st16{clip-path:url(#SVGID_24_);}
	.st17{clip-path:url(#SVGID_26_);}
	.st18{clip-path:url(#SVGID_28_);}
	.st19{clip-path:url(#SVGID_30_);}
</style>
<g id="g3266">
	<g>
		<defs>
			<polygon id="SVGID_1_" points="390,664.4 519.6,664.4 519.6,579.1 390,579.1 390,664.4 			"/>
		</defs>
		<clipPath id="SVGID_2_">
			<use xlink:href="#SVGID_1_"  style="overflow:visible;"/>
		</clipPath>
		<g id="g3268" class="st0">
			<g id="g3270">
				<g id="g3272" transform="matrix(129.60001,0,0,85.320007,639.00267,237.50731)">
				</g>
			</g>
		</g>
	</g>
</g>
<g id="g4084">
	<g>
		<defs>
			<rect id="SVGID_3_" x="-135.4" y="1041.7" width="128.9" height="84.6"/>
		</defs>
		<clipPath id="SVGID_4_">
			<use xlink:href="#SVGID_3_"  style="overflow:visible;"/>
		</clipPath>
		<g id="g4086" class="st1">
			<g id="g4088">
				<g id="g4090" transform="matrix(128.88,0,0,84.600006,113.57472,700.17735)">
				</g>
			</g>
		</g>
	</g>
</g>
<g id="g4134">
	<g>
		<defs>
			<polygon id="SVGID_5_" points="-80.9,1106.5 47.7,1106.5 47.7,1022.3 -80.9,1022.3 -80.9,1106.5 			"/>
		</defs>
		<clipPath id="SVGID_6_">
			<use xlink:href="#SVGID_5_"  style="overflow:visible;"/>
		</clipPath>
		<g id="g4136" class="st2">
			<g id="g4138">
				<g id="g4140" transform="matrix(128.52,0,0,84.240006,168.14345,680.73724)">
				</g>
			</g>
		</g>
	</g>
</g>
<g id="g4184">
	<g>
		<defs>
			<rect id="SVGID_7_" x="-135.2" y="1174.5" width="129.2" height="85.3"/>
		</defs>
		<clipPath id="SVGID_8_">
			<use xlink:href="#SVGID_7_"  style="overflow:visible;"/>
		</clipPath>
		<g id="g4186" class="st3">
			<g id="g4188">
				<g id="g4190" transform="matrix(129.24001,0,0,85.320007,113.77974,832.91951)">
				</g>
			</g>
		</g>
	</g>
</g>
<g id="g4674">
	<g>
		<defs>
			<polygon id="SVGID_9_" points="-81.3,1240.4 47.6,1240.4 47.6,1155.5 -81.3,1155.5 -81.3,1240.4 			"/>
		</defs>
		<clipPath id="SVGID_10_">
			<use xlink:href="#SVGID_9_"  style="overflow:visible;"/>
		</clipPath>
		<g id="g4676" class="st4">
			<g id="g4678">
				<g id="g4680" transform="matrix(128.88,0,0,84.960007,167.67116,813.9418)">
				</g>
			</g>
		</g>
	</g>
</g>
<g id="g5138">
	<g>
		<defs>
			<rect id="SVGID_11_" x="335.2" y="723.8" width="128.5" height="84.6"/>
		</defs>
		<clipPath id="SVGID_12_">
			<use xlink:href="#SVGID_11_"  style="overflow:visible;"/>
		</clipPath>
		<g id="g5140" class="st5">
			<g id="g5142">
				<g id="g5144" transform="matrix(128.52,0,0,84.600006,584.20555,382.30232)">
				</g>
			</g>
		</g>
	</g>
</g>
<g id="g5188">
	<g>
		<defs>
			<rect id="SVGID_13_" x="389.6" y="704" width="128.9" height="84.6"/>
		</defs>
		<clipPath id="SVGID_14_">
			<use xlink:href="#SVGID_13_"  style="overflow:visible;"/>
		</clipPath>
		<g id="g5190" class="st6">
			<g id="g5192">
				<g id="g5194" transform="matrix(128.88,0,0,84.600006,638.59129,362.50221)">
				</g>
			</g>
		</g>
	</g>
</g>
<g id="g5238">
	<g>
		<defs>
			<rect id="SVGID_15_" x="335.2" y="856.6" width="128.9" height="85.3"/>
		</defs>
		<clipPath id="SVGID_16_">
			<use xlink:href="#SVGID_15_"  style="overflow:visible;"/>
		</clipPath>
		<g id="g5240" class="st7">
			<g id="g5242">
				<g id="g5244" transform="matrix(128.88,0,0,85.320007,584.22942,515.05232)">
				</g>
			</g>
		</g>
	</g>
</g>
<g id="g6110">
	<g>
		<defs>
			<rect id="SVGID_17_" x="389.7" y="838.3" width="129.2" height="84.6"/>
		</defs>
		<clipPath id="SVGID_18_">
			<use xlink:href="#SVGID_17_"  style="overflow:visible;"/>
		</clipPath>
		<g id="g6112" class="st8">
			<g id="g6114">
				<g id="g6116" transform="matrix(129.24001,0,0,84.600006,638.69371,496.79466)">
				</g>
			</g>
		</g>
	</g>
</g>
<defs>
	
	
		<inkscape:perspective  inkscape:vp_z="744.09448 : 526.18109 : 1" inkscape:vp_y="0 : 1000 : 0" inkscape:vp_x="0 : 526.18109 : 1" sodipodi:type="inkscape:persp3d" id="perspective10" inkscape:persp3d-origin="372.04724 : 350.78739 : 1">
		</inkscape:perspective>
	
		<inkscape:perspective  inkscape:vp_z="1 : 0.5 : 1" inkscape:vp_y="0 : 1000 : 0" inkscape:vp_x="0 : 0.5 : 1" sodipodi:type="inkscape:persp3d" id="perspective2824" inkscape:persp3d-origin="0.5 : 0.33333333 : 1">
		</inkscape:perspective>
</defs>
<sodipodi:namedview  showgrid="false" inkscape:cy="57.273033" inkscape:cx="59.839504" inkscape:zoom="5.6" pagecolor="#ffffff" bordercolor="#666666" borderopacity="1.0" id="base" fit-margin-bottom="0" fit-margin-right="0" inkscape:window-maximized="1" inkscape:document-units="px" inkscape:current-layer="layer1" inkscape:window-y="-8" inkscape:window-x="-8" inkscape:pageopacity="0.0" inkscape:window-width="1280" inkscape:pageshadow="2" inkscape:window-height="1004" fit-margin-left="0" fit-margin-top="0">
	</sodipodi:namedview>
<g id="layer1" transform="translate(-386.75776,-453.8687)" inkscape:label="Layer 1" inkscape:groupmode="layer">
	<g id="g2830" transform="matrix(1.25,0,0,-1.25,442.48526,565.3212)">
		<path id="path2832" inkscape:connector-curvature="0" class="st9" d="M-199.2-273.2l-44.6,44.6l44.6,44.6l44.6-44.6L-199.2-273.2z
			"/>
	</g>
	<g id="g2834" transform="matrix(1.25,0,0,-1.25,-525.00004,626.1558)">
		<g>
			<defs>
				<rect id="SVGID_19_" x="518.5" y="-236.3" width="112.5" height="112.5"/>
			</defs>
			<clipPath id="SVGID_20_">
				<use xlink:href="#SVGID_19_"  style="overflow:visible;"/>
			</clipPath>
			<g id="g2836" class="st10">
				<g id="g2842" transform="translate(773.9882,48.6677)">
				</g>
			</g>
		</g>
	</g>
	<g id="g2846" transform="matrix(1.25,0,0,-1.25,442.48526,470.9527)">
		<path id="path2848" inkscape:connector-curvature="0" class="st11" d="M-199.2-273.2l-2.9,2.9l-12.7-12.7l12.7-12.7l2.9,2.9
			l-9.8,9.8L-199.2-273.2z"/>
	</g>
	<g id="g2850" transform="matrix(1.25,0,0,-1.25,461.98786,483.2602)">
		<path id="path2852" inkscape:connector-curvature="0" class="st12" d="M-199.2-273.2l-12.7,12.7l-2.9-2.9l9.8-9.8l-9.8-9.8
			l2.9-2.9L-199.2-273.2z"/>
	</g>
	<g id="g2854" transform="matrix(1.25,0,0,-1.25,442.48526,470.9527)">
		<path id="path2856" inkscape:connector-curvature="0" class="st13" d="M-199.2-273.2l-9.8-9.8l9.8-9.8l9.8,9.8L-199.2-273.2z"/>
	</g>
	<g id="g2858" transform="matrix(1.25,0,0,-1.25,-525.00004,626.1558)">
		<g>
			<defs>
				<rect id="SVGID_21_" x="518.5" y="-236.3" width="112.5" height="112.5"/>
			</defs>
			<clipPath id="SVGID_22_">
				<use xlink:href="#SVGID_21_"  style="overflow:visible;"/>
			</clipPath>
			<g id="g2860" class="st14">
				<g id="g2866" transform="translate(775.5779,95.8705)">
					<path id="path2868" inkscape:connector-curvature="0" class="st15" d="M-199.2-273.2v-2.2c2,1.3,3.5,2,4.9,2
						c1.5,0,2.6-0.7,3.2-2.1c2.1,1.4,3.8,2.1,5.1,2.1c2.7,0,3.5-1.9,3.5-5.8v-1.6c0-1.3,0-3-0.1-5.2l1.6-0.2v-0.6h-5.9v0.6l1.8,0.2
						c0.2,1.4,0.2,3.2,0.2,5.3c0,4-0.2,5.8-2.6,5.8c-0.9,0-2-0.4-3.4-1.3c0.1-1.1,0.2-2.3,0.2-3.7v-5.1v-1.1l1.7-0.2v-0.6h-5.8v0.6
						l1.7,0.2c0.1,1.4,0.1,3.2,0.1,5.3c0,4.1-0.3,5.8-2.7,5.8c-0.9,0-2-0.4-3.4-1.3v-6.8c0-1.1,0-2.2,0.1-3l1.8-0.2v-0.6h-6.3v0.6
						l1.9,0.2c0.1,0.8,0.1,1.9,0.1,3v5.7c0,1.1-0.1,2.1-0.1,3l-1.9,0.1l0.1,0.6L-199.2-273.2z"/>
				</g>
				<g id="g2870" transform="translate(795.6519,98.6198)">
					<path id="path2872" inkscape:connector-curvature="0" class="st15" d="M-199.2-273.2l-1.8-3.6h-0.6l0.4,3.6H-199.2z"/>
				</g>
				<g id="g2874" transform="translate(745.3872,88.406)">
					<path id="path2876" inkscape:connector-curvature="0" class="st15" d="M-199.2-273.2c0.4-3.8,2.1-5.7,4.9-5.7
						c2.6,0,4.4,1.8,4.4,4.2c0,1-0.3,1.9-0.9,2.5c-1.1,1.3-3,1.8-5,2.7c-2.8,1.3-4.1,3.1-4.1,5.7c0,3.4,2.5,5.8,6,5.8
						c2.3,0,3.7-1.1,4.4-1.1c0.4,0,0.6,0.1,0.9,0.4h0.7c-0.1-0.9-0.2-1.8-0.2-2.7v-2.4h-0.7c-0.3,3.2-2,5-4.5,5
						c-2.5,0-4.1-1.6-4.1-3.9c0-2.3,1.5-3.1,4.3-4.2c3.9-1.6,5.9-2.9,5.9-6.6c0-3.8-2.7-6.3-6.7-6.3c-2.4,0-3.9,1-4.7,1
						c-0.4,0-0.6-0.1-0.8-0.4h-0.7c0.1,0.9,0.1,1.9,0.1,2.8v3.2H-199.2z"/>
				</g>
				<g id="g2878" transform="translate(744.6553,97.8842)">
					<path id="path2880" inkscape:connector-curvature="0" class="st15" d="M-199.2-273.2c0-2.6,1.3-4.4,4.2-5.8
						c0.5-0.2,1-0.5,1.5-0.7c1.4-0.6,2.6-1.1,3.4-2.1c0.6-0.7,0.8-1.5,0.8-2.5c0-2.4-1.8-4.2-4.4-4.2c-2.7,0-4.4,2-4.8,5.7l0,0.1
						h-0.9v-3.3c0-1.1,0-2-0.1-2.8l0-0.1h0.8l0,0c0.2,0.3,0.4,0.4,0.8,0.4c0.3,0,0.7-0.1,1.1-0.3c0.9-0.3,2-0.7,3.5-0.7
						c4.1,0,6.8,2.6,6.8,6.4c0,3.9-2.2,5.1-5.9,6.7c-2.7,1.2-4.3,1.9-4.3,4.2c0,2.3,1.6,3.9,4,3.9c2.5,0,4.2-1.8,4.4-5l0-0.1h0.9
						v2.5c0,0.8,0.1,1.7,0.2,2.7l0,0.1h-0.8l0,0c-0.2-0.3-0.4-0.4-0.8-0.4c-0.2,0-0.5,0.1-0.9,0.3c-0.8,0.3-1.9,0.8-3.4,0.8
						C-196.7-267.3-199.2-269.8-199.2-273.2"/>
				</g>
				<g id="g2882" transform="translate(795.1523,92.1653)">
					<path id="path2884" inkscape:connector-curvature="0" class="st15" d="M-199.2-273.2c0-1.7,0.9-2.9,2.7-3.8c0,0,1-0.4,1-0.4
						c0.9-0.4,1.6-0.7,2.1-1.3c0.3-0.4,0.5-0.9,0.5-1.5c0-1.5-1.1-2.5-2.7-2.5c-1.7,0-2.7,1.2-3,3.5l0,0.1h-0.8v-2.2
						c0-0.7,0-1.3-0.1-1.8l0-0.2h0.7l0,0.1c0.1,0.2,0.2,0.2,0.4,0.2c0.2,0,0.4-0.1,0.7-0.2c0.5-0.2,1.3-0.4,2.3-0.4
						c2.6,0,4.4,1.7,4.4,4.1c0,2.5-1.4,3.3-3.8,4.3c-1.7,0.7-2.7,1.2-2.7,2.6c0,1.4,1,2.4,2.5,2.4c1.6,0,2.6-1.1,2.7-3.1l0-0.1h0.7
						v1.7c0,0.5,0,1.1,0.1,1.7l0,0.1h-0.7l0-0.1c-0.1-0.2-0.2-0.2-0.4-0.2c-0.1,0-0.3,0.1-0.6,0.2c-0.5,0.2-1.2,0.5-2.2,0.5
						C-197.5-269.4-199.2-271-199.2-273.2"/>
				</g>
				<g id="g2886" transform="translate(759.5409,92.4036)">
					<path id="path2888" inkscape:connector-curvature="0" class="st15" d="M-199.2-273.2c0.1,2.1,2.1,3.7,5,3.7
						c3,0,4.2-1.5,4.2-4.8v-0.5l-0.1-4.6c0-1.1,0-2.2,0.1-3l1.9-0.2v-0.6h-4.2l-0.1,1.4c-1.4-1.1-2.9-1.6-4.3-1.6
						c-1.9,0-3.2,1.2-3.2,3c0,2.5,2.5,4,7.6,4.6l0.1,2.5v0.3c0,1.9-0.8,2.8-2.5,2.8c-1.3,0-2.3-0.6-2.3-1.5c0-0.3,0.1-1.2,0.1-1.6
						c0-0.6-0.5-1.1-1.1-1.1C-198.7-274.3-199.2-273.8-199.2-273.2 M-192.6-280.5c0,1.3,0,2.7,0.1,4.2c-3.7-0.5-5.4-1.5-5.4-3.6
						c0-1.4,0.9-2.4,2.4-2.4c1,0,1.9,0.3,3,1V-280.5z"/>
				</g>
				<g id="g2890" transform="translate(763.632,73.8234)">
					<path id="path2892" inkscape:connector-curvature="0" class="st15" d="M-199.2-273.2c-0.5-0.1-1-0.2-1.4-0.2
						c-2,0-3.5,1-3.5,3.2c0,2.2,1.3,3.4,3.5,3.4c0.4,0,1-0.1,1.4-0.3l-0.1-1.1c-0.5,0.3-0.9,0.3-1.4,0.3c-1.3,0-2.1-1-2.1-2.3
						c0-1.3,0.8-2.2,2.1-2.2c0.5,0,1.1,0.1,1.4,0.3L-199.2-273.2z"/>
				</g>
				<g id="g2894" transform="translate(767.6343,80.0396)">
					<path id="path2896" inkscape:connector-curvature="0" class="st15" d="M-199.2-273.2h1.3v-5.3h2.4v-1h-3.7V-273.2z"/>
				</g>
				<g id="g2898" transform="translate(775.179,80.0396)">
					<path id="path2900" inkscape:connector-curvature="0" class="st15" d="M-199.2-273.2h1.3v-3.6c0-1.1,0.3-1.8,1.3-1.8
						c1,0,1.3,0.7,1.3,1.8v3.6h1.3v-4c0-1.7-1-2.4-2.6-2.4c-1.6,0-2.6,0.7-2.6,2.4V-273.2z"/>
				</g>
				<g id="g2902" transform="translate(786.0839,74.728)">
					<path id="path2904" inkscape:connector-curvature="0" class="st15" d="M-199.2-273.2h0.6c0.6,0,1.3,0.1,1.3,0.9
						c0,0.8-0.7,0.9-1.3,0.9h-0.6V-273.2z M-199.2-270.5h0.5c0.5,0,1.2,0.1,1.2,0.8c0,0.7-0.6,0.8-1.2,0.8h-0.5V-270.5z
						 M-200.5-267.9h2.2c0.8,0,2-0.2,2-1.6c0-0.8-0.5-1.3-1.3-1.4v0c0.9-0.1,1.4-0.7,1.4-1.4c0-1.6-1.4-1.8-2.2-1.8h-2.2
						C-200.5-274.2-200.5-267.9-200.5-267.9z"/>
				</g>
				<g id="g2906" transform="translate(792.106,78.989)">
				</g>
			</g>
		</g>
	</g>
	<g id="g4106" transform="matrix(1.25,0,0,-1.25,-165,1186.1558)">
		<g>
			<defs>
				<path id="SVGID_23_" d="M-74.2,508.6c0,0-4.4,0-4.4-4.4l0,0v-65.6c0,0,0-4.4,4.4-4.4l0,0H35.6c0,0,4.4,0,4.4,4.4l0,0v65.6
					c0,0,0,4.4-4.4,4.4l0,0H-74.2z"/>
			</defs>
			<clipPath id="SVGID_24_">
				<use xlink:href="#SVGID_23_"  style="overflow:visible;"/>
			</clipPath>
			<g id="g4108" class="st16">
				<g id="g4114" transform="matrix(126.78755,0,0,82.488281,116.69298,703.12622)">
				</g>
			</g>
		</g>
	</g>
	<g id="g4156" transform="matrix(1.25,0,0,-1.25,-165,1186.1558)">
		<g>
			<defs>
				<path id="SVGID_25_" d="M-19.6,488.8c0,0-4.4,0-4.4-4.4l0,0V419c0,0,0-4.4,4.4-4.4l0,0H89.9c0,0,4.4,0,4.4,4.4l0,0v65.4
					c0,0,0,4.4-4.4,4.4l0,0H-19.6L-19.6,488.8z"/>
			</defs>
			<clipPath id="SVGID_26_">
				<use xlink:href="#SVGID_25_"  style="overflow:visible;"/>
			</clipPath>
			<g id="g4158" class="st17">
				<g id="g4164" transform="matrix(127.37506,0,0,82.488281,170.96793,683.32611)">
				</g>
			</g>
		</g>
	</g>
	<g id="g5160" transform="matrix(1.25,0,0,-1.25,-165,1186.1558)">
		<g>
			<defs>
				<path id="SVGID_27_" d="M396.4,190.7c0,0-4.4,0-4.4-4.4l0,0v-65.6c0,0,0-4.4,4.4-4.4l0,0h109.5c0,0,4.4,0,4.4,4.4l0,0v65.6
					c0,0,0,4.4-4.4,4.4l0,0H396.4z"/>
			</defs>
			<clipPath id="SVGID_28_">
				<use xlink:href="#SVGID_27_"  style="overflow:visible;"/>
			</clipPath>
			<g id="g5162" class="st18">
				<g id="g5168" transform="matrix(127.25754,0,0,82.958298,586.90576,385.01625)">
				</g>
			</g>
		</g>
	</g>
	<g id="g5210" transform="matrix(1.25,0,0,-1.25,-165,1186.1558)">
		<g>
			<defs>
				<path id="SVGID_29_" d="M450.8,170.9c0,0-4.4,0-4.4-4.4l0,0v-65.7c0,0,0-4.4,4.4-4.4l0,0h109.8c0,0,4.4,0,4.4,4.4l0,0v65.7
					c0,0,0,4.4-4.4,4.4l0,0H450.8L450.8,170.9z"/>
			</defs>
			<clipPath id="SVGID_30_">
				<use xlink:href="#SVGID_29_"  style="overflow:visible;"/>
			</clipPath>
			<g id="g5212" class="st19">
				<g id="g5218" transform="matrix(127.37506,0,0,82.488281,641.41577,365.45114)">
				</g>
			</g>
		</g>
	</g>
</g>
</svg>
