<?xml version="1.0" encoding="UTF-8" standalone="no"?>
<svg
   xmlns:dc="http://purl.org/dc/elements/1.1/"
   xmlns:cc="http://web.resource.org/cc/"
   xmlns:rdf="http://www.w3.org/1999/02/22-rdf-syntax-ns#"
   xmlns:svg="http://www.w3.org/2000/svg"
   xmlns="http://www.w3.org/2000/svg"
   xmlns:sodipodi="http://sodipodi.sourceforge.net/DTD/sodipodi-0.dtd"
   xmlns:inkscape="http://www.inkscape.org/namespaces/inkscape"
   width="135.95399"
   height="101.7983"
   id="svg2"
   sodipodi:version="0.32"
   inkscape:version="0.44.1"
   sodipodi:docname="Alcoa.eps(converted)-page1.svg"
   sodipodi:docbase="C:\Documents and Settings\John\My Documents\My Pictures"
   version="1.0">
  <metadata
     id="metadata31">
    <rdf:RDF>
      <cc:Work
         rdf:about="">
        <dc:format>image/svg+xml</dc:format>
        <dc:type
           rdf:resource="http://purl.org/dc/dcmitype/StillImage" />
      </cc:Work>
    </rdf:RDF>
  </metadata>
  <defs
     id="defs29" />
  <sodipodi:namedview
     inkscape:window-height="573"
     inkscape:window-width="853"
     inkscape:pageshadow="2"
     inkscape:pageopacity="0.0"
     guidetolerance="10.0"
     gridtolerance="10.0"
     objecttolerance="10.0"
     borderopacity="1.0"
     bordercolor="#666666"
     pagecolor="#ffffff"
     id="base"
     inkscape:zoom="2.9281553"
     inkscape:cx="85.625"
     inkscape:cy="64.375"
     inkscape:window-x="22"
     inkscape:window-y="29"
     inkscape:current-layer="g20" />
  <g
     transform="translate(105.288,79.6358)"
     style="fill:#0044f7;fill-rule:nonzero;stroke:none;stroke-width:1pt;stroke-linecap:butt;stroke-linejoin:miter;stroke-dasharray:none"
     id="g4">
    <path
       d="M 10.186,13.8691 C 10.186,13.8691 20.604,13.8691 20.604,13.8691 C 20.604,13.8691 15.395,4.8418 15.395,4.8418 C 15.395,4.8418 10.186,13.8691 10.186,13.8691 z M 30.666,22.142 C 30.666,22.142 25.445,22.142 25.445,22.142 C 25.445,22.142 23.148,18.1914 23.148,18.1914 C 23.148,18.1914 7.639,18.1914 7.639,18.1914 C 7.639,18.1914 5.209,22.142 5.209,22.142 C 5.209,22.142 0,22.142 0,22.142 C 0,22.142 11.826,2.0419 11.826,2.0419 C 12.461,0.7705 13.869,0 15.395,0 C 16.916,0 18.193,0.7705 18.957,2.0419 C 18.957,2.0419 30.666,22.142 30.666,22.142 z "
       id="path6" />
  </g>
  <g
     transform="translate(79.081,79.7688)"
     style="fill:#0044f7;fill-rule:nonzero;stroke:none;stroke-width:1pt;stroke-linecap:butt;stroke-linejoin:miter;stroke-dasharray:none"
     id="g8">
    <path
       d="M 20.3613,17.3007 C 20.3613,17.3007 20.3613,4.709 20.3613,4.709 C 20.3613,4.709 5.0898,4.709 5.0898,4.709 C 5.0898,4.709 5.0898,17.3007 5.0898,17.3007 C 5.0898,17.3007 20.3613,17.3007 20.3613,17.3007 z M 19.2109,0 C 22.641,0 25.439,2.7988 25.439,6.2324 C 25.439,6.2324 25.439,15.7627 25.439,15.7627 C 25.439,19.2129 22.641,22.0092 19.2109,22.0092 C 19.2109,22.0092 6.2305,22.0092 6.2305,22.0092 C 2.7969,22.0092 0,19.2129 0,15.7627 C 0,15.7627 0,6.2324 0,6.2324 C 0,2.7988 2.7969,0 6.2305,0 C 6.2305,0 19.2109,0 19.2109,0 z "
       id="path10" />
  </g>
  <g
     transform="translate(54.021,79.7688)"
     style="fill:#0044f7;fill-rule:nonzero;stroke:none;stroke-width:1pt;stroke-linecap:butt;stroke-linejoin:miter;stroke-dasharray:none"
     id="g12">
    <path
       d="M 6.2334,22.0092 C 6.2334,22.0092 22.5117,22.0092 22.5117,22.0092 C 22.5117,22.0092 22.5117,17.3007 22.5117,17.3007 C 22.5117,17.3007 5.0937,17.3007 5.0937,17.3007 C 5.0937,17.3007 5.0937,4.709 5.0937,4.709 C 5.0937,4.709 22.5117,4.709 22.5117,4.709 C 22.5117,4.709 22.5117,0 22.5117,0 C 22.5117,0 6.2334,0 6.2334,0 C 2.7998,0 0,2.7988 0,6.2324 C 0,6.2324 0,15.7627 0,15.7627 C 0,19.2129 2.7998,22.0092 6.2334,22.0092 z "
       id="path14" />
  </g>
  <g
     transform="translate(31.886,79.6358)"
     style="fill:#0044f7;fill-rule:nonzero;stroke:none;stroke-width:1pt;stroke-linecap:butt;stroke-linejoin:miter;stroke-dasharray:none"
     id="g16">
    <path
       d="M 6.1103,22.142 C 6.1103,22.142 19.8437,22.142 19.8437,22.142 C 19.8437,22.142 19.8437,17.4335 19.8437,17.4335 C 19.8437,17.4335 5.0889,17.4335 5.0889,17.4335 C 5.0889,17.4335 5.0889,0 5.0889,0 C 5.0889,0 0,0 0,0 C 0,0 0,15.8955 0,15.8955 C 0,19.3457 2.6767,22.142 6.1103,22.142 z "
       id="path18" />
  </g>
  <g
     transform="translate(31.886,0)"
     style="fill:#0044f7;fill-rule:nonzero;stroke:none;stroke-width:1pt;stroke-linecap:butt;stroke-linejoin:miter;stroke-dasharray:none"
     id="g20">
    <path
       d="M 21.6348,28.3692 C 21.6348,28.3692 51.0137,28.3692 51.0137,28.3692 C 51.0137,28.3692 36.2558,45.0361 36.2558,45.0361 C 36.2558,45.0361 21.6348,28.3692 21.6348,28.3692 z M 52.0312,63.4766 C 52.0312,63.4766 67.6777,45.0361 67.6777,45.0361 C 67.6777,45.0361 36.2558,8.13965 36.2558,8.13965 C 36.2558,8.13965 4.8389,45.0361 4.8389,45.0361 C 4.8389,45.0361 20.6142,63.4766 20.6142,63.4766 C 20.6142,63.4766 36.2558,45.5381 36.2558,45.5381 C 36.2558,45.5381 52.0312,63.4766 52.0312,63.4766 z M 58.5156,0 C 66.2851,0 72.6343,6.36426 72.6343,14.1182 C 72.6343,14.1182 72.6343,58.0147 72.6343,58.0147 C 72.6343,65.7695 66.2851,72.1338 58.5156,72.1338 C 58.5156,72.1338 14.1162,72.1338 14.1162,72.1338 C 6.3603,72.1338 0,65.7695 0,58.0147 C 0,58.0147 0,14.1182 0,14.1182 C 0,6.36426 6.3603,0 14.1162,0 C 14.1162,0 58.5156,0 58.5156,0 z "
       id="path22" />
  </g>
  <g
     transform="translate(0,79.6558)"
     style="fill:#0044f7;fill-rule:nonzero;stroke:none;stroke-width:1pt;stroke-linecap:butt;stroke-linejoin:miter;stroke-dasharray:none"
     id="g24">
    <path
       d="M 10.1836,13.8672 C 10.1836,13.8672 20.6045,13.8672 20.6045,13.8672 C 20.6045,13.8672 15.3956,4.8389 15.3956,4.8389 C 15.3956,4.8389 10.1836,13.8672 10.1836,13.8672 z M 30.6661,22.1425 C 30.6661,22.1425 25.4454,22.1425 25.4454,22.1425 C 25.4454,22.1425 23.1485,18.1885 23.1485,18.1885 C 23.1485,18.1885 7.63965,18.1885 7.63965,18.1885 C 7.63965,18.1885 5.20899,22.1425 5.20899,22.1425 C 5.20899,22.1425 0,22.1425 0,22.1425 C 0,22.1425 11.8252,2.041 11.8252,2.041 C 12.462,0.7685 13.8672,0 15.3956,0 C 16.9161,0 18.1924,0.7685 18.9581,2.041 C 18.9581,2.041 30.6661,22.1425 30.6661,22.1425 z "
       id="path26" />
  </g>
</svg>
