<?xml version="1.0" encoding="UTF-8" standalone="no"?>
<!-- Created with Inkscape (http://www.inkscape.org/) -->
<svg
   xmlns:svg="http://www.w3.org/2000/svg"
   xmlns="http://www.w3.org/2000/svg"
   version="1.0"
   width="310.9054"
   height="137.60234"
   id="svg3271">
  <defs
     id="defs3273" />
  <g
     transform="translate(-219.5473,-463.56101)"
     id="layer1">
    <g
       transform="translate(422.69155,523.79482)"
       id="g3259"
       style="display:inline">
      <path
         d="M -201.5763,-60.141298 L -201.25836,40.328911 L -169.94091,40.487882 L -169.94091,-2.7524604 L -147.04896,40.964798 L -119.0892,40.984084 L -118.91094,-60.141298 L -151.18223,-59.982326 L -150.70531,-19.285533 L -170.89474,-59.982326 L -201.5763,-60.141298 z"
         id="path2456"
         style="fill:#910029;fill-opacity:1;fill-rule:evenodd;stroke:none;stroke-width:1px;stroke-linecap:butt;stroke-linejoin:miter;stroke-opacity:1" />
      <path
         d="M -111.06115,-60.233812 C -111.06115,-26.773081 -110.6308,7.773178 -110.6308,41.233909 C -99.764486,41.233909 -91.379196,41.392881 -80.51289,41.392881 C -80.662769,17.487006 -80.571662,-29.954829 -79.811152,-31.232014 C -75.549118,-33.0309 -68.365293,-28.186657 -65.622261,-25.574601 C -55.191786,-15.052059 -58.025439,6.1309386 -72.213301,12.091894 C -76.145249,13.743881 -75.161407,13.112214 -75.684769,24.556834 C -75.573317,36.206998 -75.948824,35.271338 -75.712855,41.579989 C -69.401714,41.572508 -58.539879,37.819358 -51.700992,33.701167 C -44.209285,29.189865 -35.288742,21.69896 -32.37937,13.609944 C -29.469998,5.5209279 -28.597773,-0.5684895 -28.994393,-7.6041702 C -28.561551,-21.344973 -33.707439,-32.84794 -42.249486,-43.467677 C -51.405449,-52.499052 -62.289883,-59.374815 -75.240348,-60.104277 C -84.332924,-60.181313 -101.96858,-60.156128 -111.06115,-60.233812 z"
         id="path2458"
         style="fill:#910029;fill-opacity:1;fill-rule:evenodd;stroke:none;stroke-width:1px;stroke-linecap:butt;stroke-linejoin:miter;stroke-opacity:1" />
      <path
         d="M -21.245504,-59.671763 L 11.128597,-59.784173 L 11.016187,40.935252 L -21.357914,40.710432 L -21.245504,-59.671763 z"
         id="path2460"
         style="fill:#910029;fill-opacity:1;fill-rule:evenodd;stroke:none;stroke-width:1px;stroke-linecap:butt;stroke-linejoin:miter;stroke-opacity:1" />
      <path
         d="M 20.458633,-60.121403 L 57.666367,-60.008993 L 105.32824,40.710432 L 75.089928,40.935251 L 51.371403,-9.4244606 L 51.034173,40.935251 L 20.795863,40.710431 L 20.458633,-60.121403 z"
         id="path2462"
         style="fill:#910029;fill-opacity:1;fill-rule:evenodd;stroke:none;stroke-width:1px;stroke-linecap:butt;stroke-linejoin:miter;stroke-opacity:1" />
      <text
         x="-224.15942"
         y="62.954838"
         transform="scale(0.9042831,1.1058484)"
         id="text3245"
         xml:space="preserve"
         style="font-size:17.44050598px;font-style:normal;font-variant:normal;font-weight:normal;font-stretch:normal;text-align:start;line-height:100%;writing-mode:lr-tb;text-anchor:start;fill:#910029;fill-opacity:1;stroke:none;stroke-width:1px;stroke-linecap:butt;stroke-linejoin:miter;stroke-opacity:1;font-family:Bitstream Vera Sans;-inkscape-font-specification:Bitstream Vera Sans"><tspan
           x="-224.15942"
           y="62.954838"
           id="tspan3247">National Defense Industrial Association</tspan></text>
      <text
         x="128.44925"
         y="27.134247"
         id="text3249"
         xml:space="preserve"
         style="font-size:40px;font-style:normal;font-weight:normal;fill:#000000;fill-opacity:1;stroke:none;stroke-width:1px;stroke-linecap:butt;stroke-linejoin:miter;stroke-opacity:1;font-family:Bitstream Vera Sans"><tspan
           x="128.44925"
           y="27.134247"
           id="tspan3251"> </tspan></text>
      <path
         d="M -201.89425,48.118531 L 106.51114,48.118531"
         id="path3253"
         style="fill:none;fill-rule:evenodd;stroke:#910029;stroke-width:2.5;stroke-linecap:butt;stroke-linejoin:miter;stroke-miterlimit:4;stroke-dasharray:none;stroke-opacity:1" />
      <path
         d="M -201.89425,76.118531 L 106.51114,76.118531"
         id="path3255"
         style="fill:none;fill-rule:evenodd;stroke:#910029;stroke-width:2.5;stroke-linecap:butt;stroke-linejoin:miter;stroke-miterlimit:4;stroke-dasharray:none;stroke-opacity:1" />
    </g>
  </g>
</svg>
